<svg width="552" height="83" viewBox="0 0 552 83" fill="none" xmlns="http://www.w3.org/2000/svg">
<g clip-path="url(#clip0)">
<path d="M6 21.2921L48 4V43.7079L6 61V21.2921Z" fill="#35C0ED"/>
<path d="M17 28.9888L59 12V51.0112L17 68V28.9888Z" fill="#9AEBA6"/>
<path d="M30 37.9888L72 21V60.0112L30 77V37.9888Z" fill="#2F90B0"/>
<rect x="89" y="4" width="3" height="73" fill="#08376B"/>
<path d="M142.344 23.544L129.72 57H124.68L112.056 23.544H116.712L127.224 52.392L137.736 23.544H142.344ZM149.39 26.424C148.558 26.424 147.854 26.136 147.278 25.56C146.702 24.984 146.414 24.28 146.414 23.448C146.414 22.616 146.702 21.912 147.278 21.336C147.854 20.76 148.558 20.472 149.39 20.472C150.19 20.472 150.862 20.76 151.406 21.336C151.982 21.912 152.27 22.616 152.27 23.448C152.27 24.28 151.982 24.984 151.406 25.56C150.862 26.136 150.19 26.424 149.39 26.424ZM151.502 30.696V57H147.134V30.696H151.502ZM168.258 57.432C166.242 57.432 164.434 57.096 162.834 56.424C161.234 55.72 159.97 54.76 159.042 53.544C158.114 52.296 157.602 50.872 157.506 49.272H162.018C162.146 50.584 162.754 51.656 163.842 52.488C164.962 53.32 166.418 53.736 168.21 53.736C169.874 53.736 171.186 53.368 172.146 52.632C173.106 51.896 173.586 50.968 173.586 49.848C173.586 48.696 173.074 47.848 172.05 47.304C171.026 46.728 169.442 46.168 167.298 45.624C165.346 45.112 163.746 44.6 162.498 44.088C161.282 43.544 160.226 42.76 159.33 41.736C158.466 40.68 158.034 39.304 158.034 37.608C158.034 36.264 158.434 35.032 159.234 33.912C160.034 32.792 161.17 31.912 162.642 31.272C164.114 30.6 165.794 30.264 167.682 30.264C170.594 30.264 172.946 31 174.738 32.472C176.53 33.944 177.49 35.96 177.618 38.52H173.25C173.154 37.144 172.594 36.04 171.57 35.208C170.578 34.376 169.234 33.96 167.538 33.96C165.97 33.96 164.722 34.296 163.794 34.968C162.866 35.64 162.402 36.52 162.402 37.608C162.402 38.472 162.674 39.192 163.218 39.768C163.794 40.312 164.498 40.76 165.33 41.112C166.194 41.432 167.378 41.8 168.882 42.216C170.77 42.728 172.306 43.24 173.49 43.752C174.674 44.232 175.682 44.968 176.514 45.96C177.378 46.952 177.826 48.248 177.858 49.848C177.858 51.288 177.458 52.584 176.658 53.736C175.858 54.888 174.722 55.8 173.25 56.472C171.81 57.112 170.146 57.432 168.258 57.432ZM186.28 26.424C185.448 26.424 184.744 26.136 184.168 25.56C183.592 24.984 183.304 24.28 183.304 23.448C183.304 22.616 183.592 21.912 184.168 21.336C184.744 20.76 185.448 20.472 186.28 20.472C187.08 20.472 187.752 20.76 188.296 21.336C188.872 21.912 189.16 22.616 189.16 23.448C189.16 24.28 188.872 24.984 188.296 25.56C187.752 26.136 187.08 26.424 186.28 26.424ZM188.392 30.696V57H184.024V30.696H188.392ZM207.309 57.432C204.845 57.432 202.605 56.872 200.589 55.752C198.605 54.632 197.037 53.048 195.885 51C194.765 48.92 194.205 46.52 194.205 43.8C194.205 41.112 194.781 38.744 195.933 36.696C197.117 34.616 198.717 33.032 200.733 31.944C202.749 30.824 205.005 30.264 207.501 30.264C209.997 30.264 212.253 30.824 214.269 31.944C216.285 33.032 217.869 34.6 219.021 36.648C220.205 38.696 220.797 41.08 220.797 43.8C220.797 46.52 220.189 48.92 218.973 51C217.789 53.048 216.173 54.632 214.125 55.752C212.077 56.872 209.805 57.432 207.309 57.432ZM207.309 53.592C208.877 53.592 210.349 53.224 211.725 52.488C213.101 51.752 214.205 50.648 215.037 49.176C215.901 47.704 216.333 45.912 216.333 43.8C216.333 41.688 215.917 39.896 215.085 38.424C214.253 36.952 213.165 35.864 211.821 35.16C210.477 34.424 209.021 34.056 207.453 34.056C205.853 34.056 204.381 34.424 203.037 35.16C201.725 35.864 200.669 36.952 199.869 38.424C199.069 39.896 198.669 41.688 198.669 43.8C198.669 45.944 199.053 47.752 199.821 49.224C200.621 50.696 201.677 51.8 202.989 52.536C204.301 53.24 205.741 53.592 207.309 53.592ZM239.356 30.216C242.556 30.216 245.148 31.192 247.132 33.144C249.116 35.064 250.108 37.848 250.108 41.496V57H245.788V42.12C245.788 39.496 245.132 37.496 243.82 36.12C242.508 34.712 240.716 34.008 238.444 34.008C236.14 34.008 234.3 34.728 232.924 36.168C231.58 37.608 230.908 39.704 230.908 42.456V57H226.54V30.696H230.908V34.44C231.772 33.096 232.94 32.056 234.412 31.32C235.916 30.584 237.564 30.216 239.356 30.216ZM255.611 43.752C255.611 41.064 256.155 38.712 257.243 36.696C258.331 34.648 259.819 33.064 261.707 31.944C263.627 30.824 265.755 30.264 268.091 30.264C270.395 30.264 272.395 30.76 274.091 31.752C275.787 32.744 277.051 33.992 277.883 35.496V30.696H282.299V57H277.883V52.104C277.019 53.64 275.723 54.92 273.995 55.944C272.299 56.936 270.315 57.432 268.043 57.432C265.707 57.432 263.595 56.856 261.707 55.704C259.819 54.552 258.331 52.936 257.243 50.856C256.155 48.776 255.611 46.408 255.611 43.752ZM277.883 43.8C277.883 41.816 277.483 40.088 276.683 38.616C275.883 37.144 274.795 36.024 273.419 35.256C272.075 34.456 270.587 34.056 268.955 34.056C267.323 34.056 265.835 34.44 264.491 35.208C263.147 35.976 262.075 37.096 261.275 38.568C260.475 40.04 260.075 41.768 260.075 43.752C260.075 45.768 260.475 47.528 261.275 49.032C262.075 50.504 263.147 51.64 264.491 52.44C265.835 53.208 267.323 53.592 268.955 53.592C270.587 53.592 272.075 53.208 273.419 52.44C274.795 51.64 275.883 50.504 276.683 49.032C277.483 47.528 277.883 45.784 277.883 43.8ZM294.048 34.968C294.816 33.464 295.904 32.296 297.312 31.464C298.752 30.632 300.496 30.216 302.544 30.216V34.728H301.392C296.496 34.728 294.048 37.384 294.048 42.696V57H289.68V30.696H294.048V34.968ZM330.243 30.696L314.403 69.384H309.891L315.075 56.712L304.467 30.696H309.315L317.571 52.008L325.731 30.696H330.243ZM369.798 33.336C369.798 36.12 368.838 38.44 366.918 40.296C365.03 42.12 362.134 43.032 358.23 43.032H351.798V57H347.43V23.544H358.23C362.006 23.544 364.87 24.456 366.822 26.28C368.806 28.104 369.798 30.456 369.798 33.336ZM358.23 39.432C360.662 39.432 362.454 38.904 363.606 37.848C364.758 36.792 365.334 35.288 365.334 33.336C365.334 29.208 362.966 27.144 358.23 27.144H351.798V39.432H358.23ZM373.595 43.752C373.595 41.064 374.139 38.712 375.227 36.696C376.315 34.648 377.803 33.064 379.691 31.944C381.611 30.824 383.739 30.264 386.075 30.264C388.379 30.264 390.379 30.76 392.075 31.752C393.771 32.744 395.035 33.992 395.867 35.496V30.696H400.283V57H395.867V52.104C395.003 53.64 393.707 54.92 391.979 55.944C390.283 56.936 388.299 57.432 386.027 57.432C383.691 57.432 381.579 56.856 379.691 55.704C377.803 54.552 376.315 52.936 375.227 50.856C374.139 48.776 373.595 46.408 373.595 43.752ZM395.867 43.8C395.867 41.816 395.467 40.088 394.667 38.616C393.867 37.144 392.779 36.024 391.403 35.256C390.059 34.456 388.571 34.056 386.939 34.056C385.307 34.056 383.819 34.44 382.475 35.208C381.131 35.976 380.059 37.096 379.259 38.568C378.459 40.04 378.059 41.768 378.059 43.752C378.059 45.768 378.459 47.528 379.259 49.032C380.059 50.504 381.131 51.64 382.475 52.44C383.819 53.208 385.307 53.592 386.939 53.592C388.571 53.592 390.059 53.208 391.403 52.44C392.779 51.64 393.867 50.504 394.667 49.032C395.467 47.528 395.867 45.784 395.867 43.8ZM412.033 34.968C412.801 33.464 413.889 32.296 415.297 31.464C416.737 30.632 418.481 30.216 420.529 30.216V34.728H419.377C414.481 34.728 412.033 37.384 412.033 42.696V57H407.665V30.696H412.033V34.968ZM430.899 34.296V49.8C430.899 51.08 431.171 51.992 431.715 52.536C432.259 53.048 433.203 53.304 434.547 53.304H437.763V57H433.827C431.395 57 429.571 56.44 428.355 55.32C427.139 54.2 426.531 52.36 426.531 49.8V34.296H423.123V30.696H426.531V24.072H430.899V30.696H437.763V34.296H430.899ZM455.871 30.216C459.071 30.216 461.663 31.192 463.647 33.144C465.631 35.064 466.623 37.848 466.623 41.496V57H462.303V42.12C462.303 39.496 461.647 37.496 460.335 36.12C459.023 34.712 457.231 34.008 454.959 34.008C452.655 34.008 450.815 34.728 449.439 36.168C448.095 37.608 447.423 39.704 447.423 42.456V57H443.055V30.696H447.423V34.44C448.287 33.096 449.455 32.056 450.927 31.32C452.431 30.584 454.079 30.216 455.871 30.216ZM497.759 42.84C497.759 43.672 497.711 44.552 497.615 45.48H476.591C476.751 48.072 477.631 50.104 479.231 51.576C480.863 53.016 482.831 53.736 485.135 53.736C487.023 53.736 488.591 53.304 489.839 52.44C491.119 51.544 492.015 50.36 492.527 48.888H497.231C496.527 51.416 495.119 53.48 493.007 55.08C490.895 56.648 488.271 57.432 485.135 57.432C482.639 57.432 480.399 56.872 478.415 55.752C476.463 54.632 474.927 53.048 473.807 51C472.687 48.92 472.127 46.52 472.127 43.8C472.127 41.08 472.671 38.696 473.759 36.648C474.847 34.6 476.367 33.032 478.319 31.944C480.303 30.824 482.575 30.264 485.135 30.264C487.631 30.264 489.839 30.808 491.759 31.896C493.679 32.984 495.151 34.488 496.175 36.408C497.231 38.296 497.759 40.44 497.759 42.84ZM493.247 41.928C493.247 40.264 492.879 38.84 492.143 37.656C491.407 36.44 490.399 35.528 489.119 34.92C487.871 34.28 486.479 33.96 484.943 33.96C482.735 33.96 480.847 34.664 479.279 36.072C477.743 37.48 476.863 39.432 476.639 41.928H493.247ZM507.892 34.968C508.66 33.464 509.748 32.296 511.156 31.464C512.596 30.632 514.34 30.216 516.388 30.216V34.728H515.236C510.34 34.728 507.892 37.384 507.892 42.696V57H503.524V30.696H507.892V34.968ZM530.742 57.432C528.726 57.432 526.918 57.096 525.318 56.424C523.718 55.72 522.454 54.76 521.526 53.544C520.598 52.296 520.086 50.872 519.99 49.272H524.502C524.63 50.584 525.238 51.656 526.326 52.488C527.446 53.32 528.902 53.736 530.694 53.736C532.358 53.736 533.67 53.368 534.63 52.632C535.59 51.896 536.07 50.968 536.07 49.848C536.07 48.696 535.558 47.848 534.534 47.304C533.51 46.728 531.926 46.168 529.782 45.624C527.83 45.112 526.23 44.6 524.982 44.088C523.766 43.544 522.71 42.76 521.814 41.736C520.95 40.68 520.518 39.304 520.518 37.608C520.518 36.264 520.918 35.032 521.718 33.912C522.518 32.792 523.654 31.912 525.126 31.272C526.598 30.6 528.278 30.264 530.166 30.264C533.078 30.264 535.43 31 537.222 32.472C539.014 33.944 539.974 35.96 540.102 38.52H535.734C535.638 37.144 535.078 36.04 534.054 35.208C533.062 34.376 531.718 33.96 530.022 33.96C528.454 33.96 527.206 34.296 526.278 34.968C525.35 35.64 524.886 36.52 524.886 37.608C524.886 38.472 525.158 39.192 525.702 39.768C526.278 40.312 526.982 40.76 527.814 41.112C528.678 41.432 529.862 41.8 531.366 42.216C533.254 42.728 534.79 43.24 535.974 43.752C537.158 44.232 538.166 44.968 538.998 45.96C539.862 46.952 540.31 48.248 540.342 49.848C540.342 51.288 539.942 52.584 539.142 53.736C538.342 54.888 537.206 55.8 535.734 56.472C534.294 57.112 532.63 57.432 530.742 57.432Z" fill="#08376B"/>
</g>
<defs>
<clipPath id="clip0">
<rect width="552" height="83" fill="white"/>
</clipPath>
</defs>
</svg>
